REM MD5 1bd247b6e1076c13a744f75a5ec0020d
FILE "NBA 2Ball (USA) (Demo).bin" BINARY
  TRACK 01 MODE2/2352
    INDEX 01 00:00:00
  TRACK 02 AUDIO
    INDEX 00 14:35:37
    INDEX 01 14:37:37
  TRACK 03 AUDIO
    INDEX 00 15:44:32
    INDEX 01 15:46:32
REM LEADOUT 18:46:57
